# xmcd
#
# Track frame offsets: 
#        150
#        81200
#        148500
#        179572
#
# Disc length: 3160 seconds
#
# Revision: 16
# Processed by: cddbd v1.5.2PL0 Copyright (c) Steve Scherf et al.
# Submitted via: ExactAudioCopy v1.3
#
DISCID=310c5604
DTITLE=Staatskapelle Dresden - Eugen Jochum - Symphonies 1-9
DYEAR=1977
DGENRE=Classical
TTITLE0=Symphony # 2 In C Minor, WAB 102, "Symphony Of Pauses", 1877 V
TTITLE0=ersion - 1. Moderato
TTITLE1=Symphony # 2 In C Minor, WAB 102, "Symphony Of Pauses", 1877 V
TTITLE1=ersion - 2. Andante
TTITLE2=Symphony # 2 In C Minor, WAB 102, "Symphony Of Pauses", 1877 V
TTITLE2=ersion - 3. Scherzo. Mässig Schnell
TTITLE3=Symphony # 2 In C Minor, WAB 102, "Symphony Of Pauses", 1877 V
TTITLE3=ersion - 4. Finale: Mehr Schnell
EXTD=Version 1877\nStaatskapelle Dresden/ Eugen Jochum YEAR: 1977
EXTT0=
EXTT1=
EXTT2=
EXTT3=
PLAYORDER=
